<?xml version="1.0" standalone="no"?>
<!DOCTYPE svg PUBLIC "-//W3C//DTD SVG 20010904//EN"
 "http://www.w3.org/TR/2001/REC-SVG-20010904/DTD/svg10.dtd">
<svg version="1.0" xmlns="http://www.w3.org/2000/svg"
 width="225.000000pt" height="225.000000pt" viewBox="0 0 225.000000 225.000000"
 preserveAspectRatio="xMidYMid meet">

<g transform="translate(0.000000,225.000000) scale(0.100000,-0.100000)"
fill="#fff" stroke="#000">
<path d="M945 2234 c-246 -44 -431 -139 -606 -313 -160 -160 -252 -321 -306
-537 -24 -95 -27 -129 -27 -264 0 -134 3 -169 26 -260 87 -348 316 -623 643
-773 83 -38 132 -46 153 -25 8 8 12 49 12 121 l0 108 -69 -7 c-149 -14 -257
49 -318 186 -28 62 -68 110 -129 156 -62 47 16 75 96 34 21 -11 54 -39 72 -62
119 -151 181 -180 306 -143 39 12 52 21 52 34 0 11 13 44 29 74 l29 56 -56 11
c-225 45 -355 146 -413 321 -21 63 -24 93 -24 209 0 121 3 141 24 190 13 30
37 72 53 93 29 37 29 39 18 89 -14 57 -8 151 12 213 13 39 15 40 57 37 50 -3
142 -38 213 -82 l51 -32 86 18 c112 22 280 22 392 0 l86 -18 51 32 c71 44 163
79 213 82 42 3 44 2 57 -37 20 -62 26 -156 12 -213 -12 -50 -11 -52 20 -90 52
-65 80 -161 80 -277 0 -172 -44 -300 -134 -391 -75 -74 -158 -111 -338 -148
l-27 -6 32 -62 32 -61 3 -211 c3 -124 8 -216 14 -223 18 -22 68 -14 152 23
322 145 557 427 644 774 23 91 26 126 26 260 0 135 -3 169 -27 264 -54 216
-146 377 -306 537 -103 102 -201 172 -318 225 -202 92 -441 125 -648 88z"/>
</g>
</svg>
