<?xml version="1.0" standalone="no"?>
<!DOCTYPE svg PUBLIC "-//W3C//DTD SVG 20010904//EN"
 "http://www.w3.org/TR/2001/REC-SVG-20010904/DTD/svg10.dtd">
<svg version="1.0" xmlns="http://www.w3.org/2000/svg"
 width="256.000000pt" height="256.000000pt" viewBox="0 0 256.000000 256.000000"
 preserveAspectRatio="xMidYMid meet">

<g transform="translate(0.000000,256.000000) scale(0.100000,-0.100000)"
fill="#fff" stroke="#000">
<path d="M319 2397 c-89 -25 -157 -97 -179 -188 -37 -155 85 -309 245 -309 94
0 188 59 230 145 28 57 27 166 -2 221 -56 106 -182 162 -294 131z"/>
<path d="M208 1673 l-58 -4 0 -761 0 -761 38 7 c20 3 124 6 230 6 l192 0 0
760 0 760 -172 -2 c-95 -1 -199 -3 -230 -5z"/>
<path d="M1078 1673 l-78 -4 0 -754 0 -755 230 0 230 0 0 422 c0 445 6 524 44
581 36 54 85 72 206 72 163 0 223 -37 255 -161 12 -48 15 -136 15 -493 l0
-434 61 7 c34 3 136 6 225 6 l164 0 0 548 c0 583 -4 631 -50 722 -34 67 -106
137 -174 169 -87 41 -157 55 -276 55 -166 0 -286 -47 -422 -165 -31 -27 -59
-49 -62 -49 -3 0 -6 54 -6 120 l0 120 -142 -2 c-79 -1 -178 -4 -220 -5z"/>
</g>
</svg>
